<?xml version="1.0" encoding="UTF-8" standalone="no"?>
<svg width="251px" height="34px" viewBox="0 0 251 34" version="1.1" xmlns="http://www.w3.org/2000/svg" xmlns:xlink="http://www.w3.org/1999/xlink">
    <!-- Generator: Sketch 41.2 (35397) - http://www.bohemiancoding.com/sketch -->
    <title>Combined Shape</title>
    <desc>Created with Sketch.</desc>
    <defs></defs>
    <g id="Page-1" stroke="none" stroke-width="1" fill="none" fill-rule="evenodd">
        <g id="Artboard-4" transform="translate(-67.000000, -599.000000)" fill="#000000">
            <path d="M73.1019759,624.052776 L75.8139652,624.052776 C78.1453361,624.052776 79.9771,623.339102 81.3093119,621.911732 C82.6415238,620.484362 83.3076198,618.569336 83.3076198,616.166597 C83.3076198,613.763857 82.6415238,611.848832 81.3093119,610.421462 C79.9771,608.994092 78.1453361,608.280417 75.8139652,608.280417 L73.1019759,608.280417 L73.1019759,624.052776 Z M75.8139652,603.641488 C79.810601,603.641488 83.0935025,604.801209 85.6627684,607.120685 C88.2320343,609.440161 89.5166479,612.449488 89.5166479,616.148755 C89.5166479,619.848022 88.2320343,622.863296 85.6627684,625.194666 C83.0935025,627.526037 79.810601,628.691705 75.8139652,628.691705 L67,628.691705 L67,603.641488 L75.8139652,603.641488 Z M106.537949,618.73585 C106.537949,617.118164 106.121639,615.887076 105.289007,615.042549 C104.456374,614.198021 103.469125,613.775764 102.327229,613.775764 C101.185333,613.775764 100.204031,614.198021 99.3832932,615.042549 C98.5625555,615.887076 98.1521928,617.118164 98.1521928,618.73585 C98.1521928,620.353536 98.57445,621.590571 99.4189772,622.446993 C100.263504,623.303415 101.256701,623.73162 102.398597,623.73162 C103.540493,623.73162 104.515848,623.303415 105.324691,622.446993 C106.133534,621.590571 106.537949,620.353536 106.537949,618.73585 Z M91.9431647,618.700166 C91.9431647,615.63132 92.9423086,613.175092 94.9406265,611.331405 C96.9389444,609.487719 99.4130151,608.56589 102.362913,608.56589 C105.312811,608.56589 107.780934,609.487719 109.767357,611.331405 C111.753781,613.175092 112.746977,615.63132 112.746977,618.700166 C112.746977,621.769011 111.759728,624.243082 109.785199,626.122452 C107.810671,628.001823 105.348495,628.941494 102.398597,628.941494 C99.4486992,628.941494 96.9686812,628.001823 94.9584685,626.122452 C92.9482559,624.243082 91.9431647,621.769011 91.9431647,618.700166 Z M130.196487,608.779994 L136.298463,608.779994 L136.298463,628.691705 L130.196487,628.691705 L130.196487,625.765612 C128.935644,627.859087 126.925461,628.90581 124.16588,628.90581 C121.882088,628.90581 120.032482,628.144557 118.617007,626.622029 C117.201532,625.099501 116.493805,623.029846 116.493805,620.413001 L116.493805,608.779994 L122.560096,608.779994 L122.560096,619.592267 C122.560096,620.8769 122.899092,621.870097 123.577092,622.571887 C124.255093,623.273678 125.188817,623.624567 126.378292,623.624567 C127.567767,623.624567 128.501491,623.273678 129.179491,622.571887 C129.857492,621.870097 130.196487,620.8769 130.196487,619.592267 L130.196487,608.779994 Z M156.459963,618.771534 C156.459963,617.201427 156.019863,615.988181 155.139652,615.131759 C154.25944,614.275337 153.248402,613.847132 152.106506,613.847132 C150.96461,613.847132 149.953572,614.26939 149.07336,615.113917 C148.193149,615.958444 147.75305,617.165743 147.75305,618.73585 C147.75305,620.305957 148.193149,621.519203 149.07336,622.375625 C149.953572,623.232047 150.96461,623.660251 152.106506,623.660251 C153.248402,623.660251 154.25944,623.237994 155.139652,622.393467 C156.019863,621.54894 156.459963,620.341641 156.459963,618.771534 Z M147.75305,611.384931 C149.109051,609.505561 151.053813,608.56589 153.587395,608.56589 C156.120977,608.56589 158.267947,609.523403 160.028369,611.438458 C161.788792,613.353512 162.668991,615.797847 162.668991,618.771534 C162.668991,621.745221 161.788792,624.183608 160.028369,626.086768 C158.267947,627.989928 156.138818,628.941494 153.640921,628.941494 C151.143024,628.941494 149.180419,627.894771 147.75305,625.801296 L147.75305,628.691705 L141.651074,628.691705 L141.651074,602.285494 L147.75305,602.285494 L147.75305,611.384931 Z M166.558554,628.691705 L166.558554,602.285494 L172.66053,602.285494 L172.66053,628.691705 L166.558554,628.691705 Z M186.470265,628.941494 C183.567946,628.941494 181.189032,628.00777 179.333451,626.140294 C177.47787,624.272819 176.550094,621.792801 176.550094,618.700166 C176.550094,615.607531 177.471923,613.145355 179.315609,611.313563 C181.159295,609.481772 183.544157,608.56589 186.470265,608.56589 C189.396373,608.56589 191.822866,609.469877 193.749815,611.277879 C195.676765,613.085881 196.640225,615.595636 196.640225,618.807218 C196.640225,619.497113 196.592647,620.13942 196.497489,620.734158 L182.794806,620.734158 C182.913753,621.614369 183.306274,622.333991 183.97238,622.893044 C184.638486,623.452097 185.358108,623.73162 186.131266,623.73162 C186.904425,623.73162 187.481312,623.654305 187.861944,623.499673 C188.242576,623.345041 188.522098,623.190412 188.700519,623.03578 C188.878941,622.881148 189.110885,622.625415 189.396359,622.268573 L195.997912,622.268573 C195.426964,624.266891 194.285085,625.878605 192.572241,627.103764 C190.859397,628.328923 188.825425,628.941494 186.470265,628.941494 Z M189.075202,614.650024 C188.361517,614.067181 187.517003,613.775764 186.541633,613.775764 C185.566264,613.775764 184.745538,614.067181 184.079432,614.650024 C183.413326,615.232867 182.997016,615.988172 182.83049,616.915962 L190.288461,616.915962 C190.193303,615.988172 189.788887,615.232867 189.075202,614.650024 Z M233.853976,602.285494 L233.853976,611.706088 C235.114819,609.612612 237.125002,608.56589 239.884584,608.56589 C242.168376,608.56589 244.017981,609.327143 245.433456,610.84967 C246.848932,612.372198 247.556659,614.441854 247.556659,617.058699 L247.556659,628.691705 L241.490367,628.691705 L241.490367,617.879432 C241.490367,616.594799 241.151372,615.601603 240.473371,614.899812 C239.79537,614.198022 238.861646,613.847132 237.672171,613.847132 C236.482696,613.847132 235.548973,614.198022 234.870972,614.899812 C234.192971,615.601603 233.853976,616.594799 233.853976,617.879432 L233.853976,628.691705 L227.752,628.691705 L227.752,602.285494 L233.853976,602.285494 Z M261.264075,628.941494 C258.361756,628.941494 255.982842,628.00777 254.127261,626.140294 C252.27168,624.272819 251.343904,621.792801 251.343904,618.700166 C251.343904,615.607531 252.265733,613.145355 254.109419,611.313563 C255.953105,609.481772 258.337967,608.56589 261.264075,608.56589 C264.190183,608.56589 266.616676,609.469877 268.543625,611.277879 C270.470575,613.085881 271.434035,615.595636 271.434035,618.807218 C271.434035,619.497113 271.386457,620.13942 271.291299,620.734158 L257.588616,620.734158 C257.707563,621.614369 258.100084,622.333991 258.76619,622.893044 C259.432296,623.452097 260.151918,623.73162 260.925076,623.73162 C261.698235,623.73162 262.275122,623.654305 262.655754,623.499673 C263.036386,623.345041 263.315908,623.190412 263.494329,623.03578 C263.672751,622.881148 263.904695,622.625415 264.190169,622.268573 L270.791722,622.268573 C270.220774,624.266891 269.078895,625.878605 267.366051,627.103764 C265.653207,628.328923 263.619235,628.941494 261.264075,628.941494 Z M263.869012,614.650024 C263.155327,614.067181 262.310813,613.775764 261.335443,613.775764 C260.360074,613.775764 259.539348,614.067181 258.873242,614.650024 C258.207136,615.232867 257.790826,615.988172 257.6243,616.915962 L265.08227,616.915962 C264.987112,615.988172 264.582697,615.232867 263.869012,614.650024 Z M273.896236,618.73585 C273.896236,615.643215 274.818065,613.175092 276.661751,611.331405 C278.505437,609.487719 280.890299,608.56589 283.816407,608.56589 C286.242936,608.56589 288.300697,609.166566 289.989751,610.367935 C291.678805,611.569305 292.796895,613.288071 293.344054,615.524284 L286.742501,615.524284 C286.171553,614.334809 285.237829,613.74008 283.941301,613.74008 C282.644774,613.74008 281.681313,614.198021 281.050892,615.113917 C280.42047,616.029812 280.105264,617.237111 280.105264,618.73585 C280.105264,620.234588 280.42047,621.441887 281.050892,622.357783 C281.681313,623.273679 282.603143,623.73162 283.816407,623.73162 C284.577671,623.73162 285.172399,623.600779 285.60061,623.339095 C286.028821,623.07741 286.409448,622.613522 286.742501,621.947416 L293.344054,621.947416 C292.796895,624.088471 291.666911,625.789395 289.954067,627.050238 C288.241223,628.311081 286.195357,628.941494 283.816407,628.941494 C280.890299,628.941494 278.505437,628.013717 276.661751,626.158136 C274.818065,624.302555 273.896236,621.828485 273.896236,618.73585 Z M215.412376,603.660698 L215.412376,599 L209.3104,599 L209.3104,603.518379 C206.884053,603.988257 204.756825,605.111021 202.928679,606.886684 C200.442677,609.301318 199.199694,612.36417 199.199694,616.075332 C199.199694,619.786494 200.442677,622.849346 202.928679,625.26398 C204.756825,627.039643 206.884053,628.162406 209.3104,628.632285 L209.3104,633 L215.412376,633 L215.412376,628.489966 C216.867276,628.129966 218.219228,627.524479 219.468245,626.6735 C221.63309,625.198551 223.1437,623.152685 224.000122,620.53584 L216.720572,620.53584 C215.768992,622.367632 214.246487,623.283514 212.153011,623.283514 C210.059535,623.283514 208.412137,622.629312 207.210767,621.32089 C206.009398,620.012468 205.408722,618.263966 205.408722,616.075332 C205.408722,613.886698 206.009398,612.138196 207.210767,610.829773 C208.412137,609.521351 210.059535,608.86715 212.153011,608.86715 C214.246487,608.86715 215.768992,609.783032 216.720572,611.614823 L224.000122,611.614823 C223.1437,608.997978 221.63309,606.952112 219.468245,605.477163 C218.219228,604.626184 216.867276,604.020697 215.412376,603.660698 Z M302.8717,628.691705 L296.769724,628.691705 L296.769724,602.285494 L302.8717,602.285494 L302.8717,617.094383 L309.045044,608.779994 L317.25238,608.779994 L308.723888,618.949954 L317.25238,628.691705 L309.152096,628.691705 L302.8717,620.734158 L302.8717,628.691705 Z" id="Combined-Shape"></path>
        </g>
    </g>
</svg>