<?xml version="1.0" encoding="UTF-8" standalone="no"?>
<svg width="90px" height="89px" viewBox="0 0 90 89" version="1.1" xmlns="http://www.w3.org/2000/svg" xmlns:xlink="http://www.w3.org/1999/xlink">
    <!-- Generator: Sketch 39.1 (31720) - http://www.bohemiancoding.com/sketch -->
    <title>Group 44</title>
    <desc>Created with Sketch.</desc>
    <defs></defs>
    <g id="Page-1" stroke="none" stroke-width="1" fill="none" fill-rule="evenodd">
        <g id="Desktop-HD" transform="translate(-943.000000, -636.000000)" fill="#4ECDE8">
            <g id="Group-44" transform="translate(943.000000, 636.000000)">
                <path d="M15.08125,46.7164062 L6.68125,61.4164062 C6.38125,61.9164062 6.38125,62.5164062 6.68125,63.0164062 C6.98125,63.5164062 7.48125,63.8164062 8.08125,63.8164062 L12.78125,63.8164062 L12.78125,72.8164062 C12.78125,77.7164062 16.78125,81.6164062 21.68125,81.6164062 L31.58125,81.6164062 L31.58125,88.3164062 L34.78125,88.3164062 L34.78125,81.6164062 L39.68125,81.6164062 C40.58125,81.6164062 41.28125,80.9164062 41.28125,80.0164062 C41.28125,79.1164062 40.58125,78.4164062 39.68125,78.4164062 L33.28125,78.4164062 L31.78125,78.4164062 L21.48125,78.4164062 C18.38125,78.4164062 15.78125,75.9164062 15.78125,72.7164062 L15.78125,62.2164062 C15.78125,61.3164062 15.08125,60.6164062 14.18125,60.6164062 L10.78125,60.6164062 L18.08125,47.9164062 C18.18125,47.6164062 18.28125,47.3164062 18.28125,47.1164062 L18.28125,46.9164062 L18.28125,45.9164062 C18.28125,31.9164062 29.68125,20.6164062 43.58125,20.6164062 C57.58125,20.6164062 68.88125,32.0164062 68.88125,45.9164062 C68.88125,52.6164062 66.28125,58.9164062 61.58125,63.7164062 L57.28125,66.6164062 C56.58125,67.1164062 56.38125,68.1164062 56.88125,68.8164062 C57.18125,69.3164062 57.68125,69.5164062 58.18125,69.5164062 C58.48125,69.5164062 58.78125,69.4164062 59.08125,69.2164062 L61.08125,67.9164062 L61.08125,88.4164062 L64.28125,88.4164062 L64.28125,65.6164062 C69.38125,60.3164062 72.18125,53.3164062 72.18125,45.9164062 C72.18125,30.2164062 59.38125,17.4164062 43.68125,17.4164062 C27.98125,17.4164062 15.18125,30.2164062 15.18125,45.9164062 C15.08125,46.2164062 15.08125,46.5164062 15.08125,46.7164062 L15.08125,46.7164062 Z" id="Shape"></path>
                <path d="M36.38125,51.8164062 L36.38125,53.3164062 C36.38125,56.8164062 39.28125,59.7164062 42.78125,59.7164062 L43.38125,59.7164062 L43.38125,62.6164062 L46.58125,62.6164062 L46.58125,59.7164062 L46.68125,59.7164062 C50.18125,59.7164062 53.08125,56.8164062 53.08125,53.3164062 L53.08125,50.0164062 C53.08125,48.1164062 51.88125,46.3164062 49.48125,44.8164062 L48.58125,44.4164062 L48.58125,44.4164062 L46.58125,43.6164062 L46.58125,32.9164062 L46.68125,32.9164062 C48.48125,32.9164062 49.88125,34.4164062 49.88125,36.1164062 L49.88125,37.6164062 L53.08125,37.6164062 L53.08125,36.1164062 C53.08125,32.6164062 50.18125,29.7164062 46.68125,29.7164062 L46.58125,29.7164062 L46.58125,27.0164062 L43.38125,27.0164062 L43.38125,29.7164062 L42.78125,29.7164062 C39.28125,29.7164062 36.38125,32.6164062 36.38125,36.1164062 L36.38125,39.4164062 C36.38125,41.3164062 37.58125,43.0164062 39.88125,44.5164062 L41.18125,45.0164062 L41.18125,45.0164062 L43.48125,45.9164062 L43.48125,56.6164062 L42.78125,56.6164062 C40.98125,56.6164062 39.58125,55.1164062 39.58125,53.4164062 L39.58125,51.9164062 L36.38125,51.9164062 L36.38125,51.8164062 Z M41.38125,41.7164062 C40.48125,41.1164062 39.48125,40.3164062 39.48125,39.4164062 L39.48125,36.1164062 C39.48125,34.3164062 40.98125,32.9164062 42.68125,32.9164062 L43.28125,32.9164062 L43.28125,42.5164062 L42.28125,42.1164062 L42.08125,42.0164062 L42.08125,42.0164062 L41.38125,41.7164062 L41.38125,41.7164062 Z M46.58125,47.1164062 L47.88125,47.6164062 C49.08125,48.4164062 49.88125,49.3164062 49.88125,50.0164062 L49.88125,53.3164062 C49.88125,55.1164062 48.38125,56.5164062 46.68125,56.5164062 L46.58125,56.5164062 L46.58125,47.1164062 L46.58125,47.1164062 Z" id="Shape"></path>
                <rect id="Rectangle-path" transform="translate(58.228550, 9.553906) rotate(-68.283710) translate(-58.228550, -9.553906) " x="51.7287418" y="7.95395345" width="12.9996165" height="3.1999056"></rect>
                <rect id="Rectangle-path" x="42.08125" y="0.21640625" width="3.2" height="13"></rect>
                <rect id="Rectangle-path" transform="translate(15.770040, 18.233796) rotate(-45.000000) translate(-15.770040, -18.233796) " x="14.1700553" y="11.7338586" width="3.19996931" height="12.9998753"></rect>
                <rect id="Rectangle-path" transform="translate(7.054440, 31.505856) rotate(-68.291152) translate(-7.054440, -31.505856) " x="5.45439774" y="25.0056846" width="3.20008451" height="13.0003433"></rect>
                <rect id="Rectangle-path" transform="translate(29.087050, 9.516906) rotate(-21.716290) translate(-29.087050, -9.516906) " x="27.4870972" y="3.017098" width="3.1999056" height="12.9996165"></rect>
                <rect id="Rectangle-path" x="76.58125" y="44.5164062" width="13" height="3.2"></rect>
                <rect id="Rectangle-path" transform="translate(71.477310, 18.252726) rotate(-45.000000) translate(-71.477310, -18.252726) " x="64.9773723" y="16.6527416" width="12.9998753" height="3.19996931"></rect>
                <rect id="Rectangle-path" transform="translate(80.273460, 31.514026) rotate(-21.703524) translate(-80.273460, -31.514026) " x="73.7735287" y="29.9140432" width="12.9998625" height="3.19996616"></rect>
            </g>
        </g>
    </g>
</svg>