<?xml version="1.0" encoding="UTF-8" standalone="no"?>
<svg width="90px" height="58px" viewBox="0 0 90 58" version="1.1" xmlns="http://www.w3.org/2000/svg" xmlns:xlink="http://www.w3.org/1999/xlink">
    <!-- Generator: Sketch 39.1 (31720) - http://www.bohemiancoding.com/sketch -->
    <title>Group 5</title>
    <desc>Created with Sketch.</desc>
    <defs></defs>
    <g id="Page-1" stroke="none" stroke-width="1" fill="none" fill-rule="evenodd">
        <g id="Desktop-HD" transform="translate(-418.000000, -667.000000)" fill="#4ECDE8">
            <g id="Group-5" transform="translate(418.000000, 667.000000)">
                <g id="Group-47">
                    <path d="M83.1804687,0.61640625 L6.28046875,0.61640625 C2.98046875,0.61640625 0.28046875,3.31640625 0.28046875,6.61640625 L0.28046875,51.3164063 C0.28046875,54.6164063 2.98046875,57.3164063 6.28046875,57.3164063 L83.1804687,57.3164063 C86.4804687,57.3164063 89.1804687,54.6164063 89.1804687,51.3164063 L89.1804687,6.61640625 C89.1804687,3.31640625 86.4804687,0.61640625 83.1804687,0.61640625 L83.1804687,0.61640625 Z M6.28046875,3.71640625 L83.1804687,3.71640625 C84.7804687,3.71640625 85.9804687,5.01640625 85.9804687,6.51640625 L85.9804687,9.81640625 L3.48046875,9.81640625 L3.48046875,6.51640625 C3.48046875,5.01640625 4.78046875,3.71640625 6.28046875,3.71640625 L6.28046875,3.71640625 Z M85.9804687,13.1164063 L85.9804687,18.2164063 L3.48046875,18.2164063 L3.48046875,13.1164063 L85.9804687,13.1164063 L85.9804687,13.1164063 Z M83.1804687,54.1164063 L6.28046875,54.1164063 C4.68046875,54.1164063 3.48046875,52.8164063 3.48046875,51.3164063 L3.48046875,21.3164063 L85.9804687,21.3164063 L85.9804687,51.3164063 C85.9804687,52.9164063 84.7804687,54.1164063 83.1804687,54.1164063 L83.1804687,54.1164063 Z" id="Shape"></path>
                    <rect id="Rectangle-path" x="45.2804687" y="40.2164063" width="16.5" height="3.2"></rect>
                    <rect id="Rectangle-path" x="45.2804687" y="34.2164063" width="32.8" height="3.2"></rect>
                    <path d="M9.78046875,48.6164063 L38.8804687,48.6164063 L38.8804687,27.1164063 L9.78046875,27.1164063 L9.78046875,48.6164063 L9.78046875,48.6164063 Z M35.6804687,30.3164063 L35.6804687,33.4164063 L29.4804687,33.4164063 L29.4804687,36.6164063 L35.6804687,36.6164063 L35.6804687,39.1164063 L29.4804687,39.1164063 L29.4804687,42.3164063 L35.6804687,42.3164063 L35.6804687,45.4164063 L12.9804687,45.4164063 L12.9804687,42.3164063 L19.2804687,42.3164063 L19.2804687,39.1164063 L12.9804687,39.1164063 L12.9804687,36.6164063 L19.2804687,36.6164063 L19.2804687,33.4164063 L12.9804687,33.4164063 L12.9804687,30.3164063 L35.6804687,30.3164063 L35.6804687,30.3164063 Z" id="Shape"></path>
                </g>
            </g>
        </g>
    </g>
</svg>