<?xml version="1.0" encoding="UTF-8" standalone="no"?>
<svg width="85px" height="89px" viewBox="0 0 85 89" version="1.1" xmlns="http://www.w3.org/2000/svg" xmlns:xlink="http://www.w3.org/1999/xlink">
    <!-- Generator: Sketch 39.1 (31720) - http://www.bohemiancoding.com/sketch -->
    <title>Group 3</title>
    <desc>Created with Sketch.</desc>
    <defs></defs>
    <g id="Page-1" stroke="none" stroke-width="1" fill="none" fill-rule="evenodd">
        <g id="Desktop-HD" transform="translate(-678.000000, -800.000000)" fill="#4ECDE8">
            <g id="Group-3" transform="translate(678.000000, 800.000000)">
                <path d="M19.2632812,46.4450812 L19.2632812,42.9450812 L16.0632812,42.9450812 L16.0632812,46.3450812 C14.2632812,46.6450812 12.7632812,48.2450812 12.7632812,50.1450812 L12.7632812,51.6450812 C12.7632812,52.4450812 13.0632812,53.6450812 14.7632812,54.7450812 L15.4632812,55.0450812 L15.4632812,55.0450812 L18.5632812,56.2450812 C18.8632812,56.4450812 18.9632812,56.6450812 18.9632812,56.6450812 L18.9632812,58.1450812 C18.9632812,58.5450812 18.6632812,58.8450812 18.3632812,58.8450812 L16.5632812,58.8450812 C16.1632812,58.8450812 15.9632812,58.5450812 15.9632812,58.1450812 L15.9632812,57.4450812 L12.7632812,57.4450812 L12.7632812,58.1450812 C12.7632812,60.0450812 14.1632812,61.6450812 16.0632812,61.9450812 L16.0632812,65.4450812 L19.2632812,65.4450812 L19.2632812,61.9450812 C20.9632812,61.5450812 22.2632812,60.0450812 22.2632812,58.2450812 L22.2632812,56.7450812 C22.2632812,55.5450812 21.5632812,54.4450812 20.2632812,53.6450812 L19.6632812,53.4450812 L19.6632812,53.4450812 L16.7632812,52.3450812 L16.6632812,52.3450812 L16.6632812,52.3450812 L16.3632812,51.9450812 C16.0632812,51.7450812 15.9632812,51.6450812 15.9632812,51.6450812 L15.9632812,50.1450812 C15.9632812,49.7450812 16.2632812,49.4450812 16.6632812,49.4450812 L18.3632812,49.4450812 C18.7632812,49.4450812 18.9632812,49.7450812 18.9632812,50.1450812 L18.9632812,50.8450812 L22.1632812,50.8450812 L22.1632812,50.1450812 C22.2632812,48.3450812 20.9632812,46.7450812 19.2632812,46.4450812 L19.2632812,46.4450812 Z" id="Shape"></path>
                <path d="M34.7632812,65.5450812 C34.7632812,65.3450812 34.7632812,65.1450812 34.6632812,64.9450812 L19.1632812,27.0450812 C19.1632812,26.7450812 19.0632812,26.5450812 18.8632812,26.2450812 C18.2632812,25.3450812 16.7632812,25.3450812 16.1632812,26.2450812 C15.9632812,26.5450812 15.8632812,26.7450812 15.8632812,27.0450812 L0.36328125,64.9450812 C0.26328125,65.1450812 0.26328125,65.3450812 0.26328125,65.5450812 C0.26328125,68.5450812 2.76328125,71.0450812 5.76328125,71.0450812 L29.2632812,71.0450812 C32.3632812,71.0450812 34.7632812,68.5450812 34.7632812,65.5450812 L34.7632812,65.5450812 Z M3.36328125,65.7450812 L3.86328125,64.6450812 L11.7632812,64.6450812 L11.7632812,61.4450812 L5.16328125,61.4450812 L17.4632812,31.4450812 L29.7632812,61.4450812 L23.1632812,61.4450812 L23.1632812,64.6450812 L31.0632812,64.6450812 L31.5632812,65.7450812 C31.4632812,66.9450812 30.4632812,67.8450812 29.2632812,67.8450812 L5.76328125,67.8450812 C4.56328125,67.8450812 3.56328125,66.9450812 3.36328125,65.7450812 L3.36328125,65.7450812 Z" id="Shape"></path>
                <path d="M84.0632813,43.0450812 L71.3632812,12.1450812 C71.3632812,11.8450812 71.2632813,11.6450812 71.0632813,11.4450812 C70.4632813,10.5450812 68.9632813,10.5450812 68.3632812,11.4450812 C68.1632812,11.6450812 68.1632812,11.9450812 68.0632813,12.2450812 L55.4632813,43.0450812 C55.3632812,43.2450812 55.3632812,43.4450812 55.3632812,43.6450812 C55.3632812,46.2450812 57.5632813,48.4450812 60.1632812,48.4450812 L79.3632812,48.4450812 C81.9632812,48.4450812 84.1632812,46.2450812 84.1632812,43.6450812 C84.1632812,43.4450812 84.1632812,43.2450812 84.0632813,43.0450812 L84.0632813,43.0450812 Z M69.7632813,16.6450812 L79.3632812,40.0450812 L60.1632812,40.0450812 L69.7632813,16.6450812 L69.7632813,16.6450812 Z M79.3632812,45.2450812 L60.1632812,45.2450812 C59.3632812,45.2450812 58.6632812,44.6450812 58.5632812,43.8450812 L58.8632812,43.2450812 L80.7632812,43.2450812 L81.0632812,43.8450812 C80.8632812,44.6450812 80.1632812,45.2450812 79.3632812,45.2450812 L79.3632812,45.2450812 Z" id="Shape"></path>
                <path d="M75.0632813,11.0450812 L75.0632813,6.94508122 C75.0632813,6.44508122 74.8632813,5.94508122 74.4632813,5.64508122 C74.0632813,5.34508122 73.5632813,5.24508122 73.0632813,5.34508122 L49.8632813,11.9450812 C50.1632813,11.1450812 50.3632813,10.3450812 50.3632813,9.44508122 C50.3632813,6.24508122 48.1632813,3.64508122 45.1632813,2.84508122 L45.1632813,0.54508122 L41.9632813,0.54508122 L41.9632813,2.94508122 C38.9632813,3.64508122 36.7632813,6.34508122 36.7632813,9.54508122 C36.7632813,11.3450812 37.4632813,12.9450812 38.6632813,14.1450812 L38.6632813,15.2450812 L13.3632813,22.5450812 C12.6632813,22.7450812 12.2632813,23.3450812 12.2632813,24.0450812 L12.2632813,28.1450812 L15.3632813,28.1450812 L15.3632813,25.2450812 L38.6632813,18.5450812 L38.6632813,77.3450812 C36.9632813,78.1450812 35.4632813,79.3450812 34.3632813,80.8450812 L12.4632813,80.8450812 C8.96328125,80.8450812 6.06328125,83.6450812 6.06328125,87.1450812 L6.06328125,88.7450812 L80.8632813,88.7450812 L80.8632813,87.1450812 C80.8632813,83.6450812 78.0632813,80.8450812 74.5632813,80.8450812 L52.7632813,80.8450812 C51.6632813,79.2450812 50.1632813,78.1450812 48.4632813,77.3450812 L48.4632813,15.7450812 L71.8632813,9.04508122 L71.8632813,11.0450812 L75.0632813,11.0450812 L75.0632813,11.0450812 Z M41.9632813,6.34508122 L41.9632813,9.44508122 L45.1632813,9.44508122 L45.1632813,6.34508122 C46.3632813,6.94508122 47.1632813,8.14508122 47.1632813,9.54508122 C47.1632813,11.5450812 45.5632813,13.1450812 43.5632813,13.1450812 L43.5632813,13.1450812 C41.5632813,13.1450812 39.9632813,11.5450812 39.9632813,9.54508122 C39.9632813,8.14508122 40.7632813,6.94508122 41.9632813,6.34508122 L41.9632813,6.34508122 Z M50.5632813,83.2450812 L51.0632813,84.0450812 L74.6632813,84.0450812 C75.8632813,84.0450812 76.8632813,84.6450812 77.3632813,85.6450812 L9.76328125,85.6450812 C10.3632813,84.7450812 11.3632813,84.0450812 12.4632813,84.0450812 L36.0632813,84.0450812 L36.5632813,83.2450812 C37.8632813,80.9450812 40.2632813,79.5450812 42.8632813,79.5450812 L44.1632813,79.5450812 C46.7632813,79.6450812 49.1632813,81.0450812 50.5632813,83.2450812 L50.5632813,83.2450812 Z M45.2632813,76.4450812 L44.1632813,76.4450812 L42.8632813,76.4450812 L41.7632813,76.4450812 L41.7632813,17.6450812 L45.2632813,16.6450812 L45.2632813,76.4450812 L45.2632813,76.4450812 Z" id="Shape"></path>
            </g>
        </g>
    </g>
</svg>