<?xml version="1.0" encoding="UTF-8" standalone="no"?>
<svg width="79px" height="67px" viewBox="0 0 79 67" version="1.1" xmlns="http://www.w3.org/2000/svg" xmlns:xlink="http://www.w3.org/1999/xlink">
    <!-- Generator: Sketch 39.1 (31720) - http://www.bohemiancoding.com/sketch -->
    <title>Debt</title>
    <desc>Created with Sketch.</desc>
    <defs></defs>
    <g id="Page-1" stroke="none" stroke-width="1" fill="none" fill-rule="evenodd">
        <g id="Desktop-HD" transform="translate(-683.000000, -1256.000000)" fill="#4A90E2">
            <g id="Debt" transform="translate(684.000000, 1256.000000)">
                <polygon id="Fill-1" points="43.5431552 0 17.5252 27.1708103 18.3227821 27.1708103 43.5592448 0.815551724 49.8203791 6.87558621 50.2961701 6.53481034"></polygon>
                <polygon id="Fill-2" points="43.5743 1.63341379 49.344703 7.21636207 49.820494 6.87558621 43.5582104 0.816706897 18.322897 27.1708103 19.1204791 27.1708103"></polygon>
                <polygon id="Fill-3" points="52.9609448 5.3332 58.0084672 12.4467517 58.5394224 12.1983897 53.0954075 4.52804483 50.2969746 6.53342414 50.7176015 6.9412"></polygon>
                <polygon id="Fill-4" points="22.5046866 27.1706948 49.7661343 7.62402241 49.3455075 7.21624655 21.5151791 27.1706948"></polygon>
                <polygon id="Fill-5" points="49.820494 6.87523966 50.2411209 7.28301552 50.7180612 6.94223966 50.2962851 6.53446379"></polygon>
                <polygon id="Fill-6" points="49.344703 7.21624655 49.7653299 7.62402241 50.2411209 7.28324655 49.820494 6.87547069"></polygon>
                <polygon id="Fill-7" points="52.8277463 6.13847069 57.4787761 12.692919 58.0085821 12.4457121 52.9610597 5.33331552 50.7177164 6.94131552 51.1394925 7.34909138"></polygon>
                <polygon id="Fill-8" points="23.4939642 27.1706948 50.1876806 8.03179828 49.7659045 7.62402241 22.5044567 27.1706948"></polygon>
                <polygon id="Fill-9" points="50.2414657 7.28278448 50.6632418 7.69056034 51.1390328 7.34978448 50.718406 6.94200862"></polygon>
                <polygon id="Fill-10" points="49.7656746 7.62379138 50.1874507 8.03156724 50.6632418 7.69079138 50.2414657 7.28301552"></polygon>
                <polygon id="Fill-11" points="61.3772746 11.510369 68.6118269 27.1710414 69.2462149 27.1710414 61.6565433 10.7433345 58.5386179 12.1988517 58.878797 12.6770931"></polygon>
                <polygon id="Fill-12" points="56.9294328 12.9499448 57.3730448 13.379669 57.8189552 13.1717379 57.4799254 12.6934966"></polygon>
                <polygon id="Fill-13" points="56.254706 13.9013448 55.811094 13.4716207 26.4614522 27.1708103 27.8256164 27.1708103"></polygon>
                <polygon id="Fill-14" points="56.3698612 13.2108983 56.8134731 13.6406224 57.3731597 13.3795534 56.9295478 12.9498293"></polygon>
                <polygon id="Fill-15" points="55.8113239 13.4718517 56.2549358 13.9015759 56.8134731 13.6405069 56.3698612 13.2107828"></polygon>
                <polygon id="Fill-16" points="58.0092716 12.4457121 58.3483015 12.9239534 58.8781075 12.6767466 58.5390776 12.1985052"></polygon>
                <polygon id="Fill-17" points="57.4796955 12.69315 57.8187254 13.1713914 58.3485313 12.9241845 58.0095015 12.4459431"></polygon>
                <polygon id="Fill-18" points="61.0981209 12.2776345 65.7675388 22.3842379 66.9156433 24.0026345 66.6145388 24.2186517 67.978703 27.1712724 68.6119418 27.1712724 61.3773896 11.5106 58.8777627 12.6773241 59.2179418 13.1555655"></polygon>
                <polygon id="Fill-19" points="57.3731597 13.3793224 57.8167716 13.8090466 58.1581 13.6496328 57.8190701 13.1713914"></polygon>
                <polygon id="Fill-20" points="56.254706 13.9013448 27.8256164 27.1708103 29.1897806 27.1708103 56.6983179 14.331069"></polygon>
                <polygon id="Fill-21" points="56.8135881 13.6402759 57.2572 14.07 57.8168866 13.808931 57.3732746 13.3792069"></polygon>
                <polygon id="Fill-22" points="56.2550507 13.9012293 56.6986627 14.3309534 57.2572 14.0698845 56.8135881 13.6401603"></polygon>
                <polygon id="Fill-23" points="66.6148836 24.2187672 66.9159881 24.0039052 65.7678836 22.3831983"></polygon>
                <polygon id="Fill-24" points="58.3485313 12.9239534 58.6875612 13.4021948 59.2173672 13.1549879 58.8783373 12.6767466"></polygon>
                <polygon id="Fill-25" points="57.8189552 13.1713914 58.1579851 13.6496328 58.687791 13.4024259 58.3487612 12.9241845"></polygon>
                <path d="M36.8611642,60.5518276 L39.2182836,60.5518276 L39.2182836,32.5654655 L36.8611642,32.5654655 L36.8611642,60.5518276 Z M70.5009701,27.1708103 L5.57962687,27.1708103 C2.49847761,27.1708103 0,29.6821552 0,32.7791724 L0,60.3369655 C0,63.4339828 2.49847761,65.9453276 5.57962687,65.9453276 L70.5009701,65.9453276 C73.5821194,65.9453276 76.080597,63.4339828 76.080597,60.3369655 L76.080597,32.7791724 C76.080597,29.6821552 73.5821194,27.1708103 70.5009701,27.1708103 L70.5009701,27.1708103 Z" id="Fill-26" stroke="#FFFFFF" stroke-width="2"></path>
            </g>
        </g>
    </g>
</svg>