<?xml version="1.0" encoding="UTF-8" standalone="no"?>
<svg width="86px" height="75px" viewBox="0 0 86 75" version="1.1" xmlns="http://www.w3.org/2000/svg" xmlns:xlink="http://www.w3.org/1999/xlink">
    <!-- Generator: Sketch 39.1 (31720) - http://www.bohemiancoding.com/sketch -->
    <title>Loans</title>
    <desc>Created with Sketch.</desc>
    <defs>
        <path d="M75.7402353,47.6175789 C70.617098,47.6175789 55.2508235,58.5170526 51.6225882,58.5170526 L36.6814118,58.5170526 C34.8414118,58.5170526 35.3088627,55.566 36.6814118,55.566 L49.1441569,55.566 C53.3025882,55.566 53.4798431,50.4012632 49.1441569,50.4012632 C49.1441569,50.4012632 41.0641569,50.9554737 34.179451,47.6175789 C27.6712157,44.4628421 26.5590588,41.2528421 16.6421961,40.9117895 C16.3174902,39.2696842 15.046902,38.0412632 13.5206275,38.0412632 L3.99121569,38.0412632 C2.22023529,38.0412632 0.784941176,39.6928421 0.784941176,41.7312632 L0.784941176,46.1681053 C0.784941176,51.6391579 4.1574902,51.2838947 7.46101961,62.7786316 L13.5206275,62.7786316 C14.9465098,62.7786316 16.1402353,61.7033684 16.5574902,60.2238947 C23.8186667,63.6628421 32.7927843,67.9386316 36.3849412,69.7465263 C42.8429804,72.9975789 52.8272941,67.9733684 52.8272941,67.9733684 L79.2021961,51.7181053 C79.2021961,51.7181053 80.8633725,47.6175789 75.7402353,47.6175789 L75.7402353,47.6175789 Z" id="path-1"></path>
        <mask id="mask-2" maskContentUnits="userSpaceOnUse" maskUnits="objectBoundingBox" x="-3" y="-3" width="84.6743286" height="38.8002071">
            <rect x="-2.21505882" y="35.0412632" width="84.6743286" height="38.8002071" fill="white"></rect>
            <use xlink:href="#path-1" fill="black"></use>
        </mask>
    </defs>
    <g id="Page-1" stroke="none" stroke-width="1" fill="none" fill-rule="evenodd">
        <g id="Desktop-HD" transform="translate(-680.000000, -1028.000000)" stroke="#4A90E2">
            <g id="Loans" transform="translate(683.000000, 1029.000000)">
                <g id="Page-1">
                    <use id="Stroke-1" mask="url(#mask-2)" stroke-width="6" xlink:href="#path-1"></use>
                    <path d="M46.2826667,0.894736842 C36.151675,0.894736842 27.9386144,9.16183076 27.9386144,19.3594737 C27.9386144,29.5571166 36.151675,37.8242105 46.2826667,37.8242105 C56.4136583,37.8242105 64.626719,29.5571166 64.626719,19.3594737 C64.626719,9.16183076 56.4136583,0.894736842 46.2826667,0.894736842 L46.2826667,0.894736842 Z" id="Stroke-3" stroke-width="3"></path>
                    <path d="M48.0998664,25.4883267 C48.4448614,25.3701089 48.7458145,25.1964765 49.0027257,24.9674296 C49.2596369,24.7383826 49.4578255,24.4502268 49.5972916,24.1029621 C49.7367576,23.7556973 49.8064907,23.3456294 49.8064907,22.8727583 C49.8064907,22.4442189 49.7330875,22.0858712 49.5862811,21.7977154 C49.4394747,21.5095595 49.2412861,21.2620411 48.9917152,21.05516 C48.7421443,20.8482788 48.4411912,20.6746465 48.0888559,20.5342629 C47.7365205,20.3938793 47.3621642,20.2645786 46.965787,20.1463608 L46.965787,25.709985 C47.3768449,25.6804306 47.7548713,25.6065444 48.0998664,25.4883267 M43.9599261,13.4411961 C43.4681247,13.8771242 43.222224,14.516239 43.222224,15.3585407 C43.222224,15.7427485 43.2846167,16.0715417 43.4094021,16.3449203 C43.5341876,16.6182989 43.7103552,16.8473459 43.9379051,17.0320612 C44.165455,17.2167764 44.4333767,17.3756316 44.7416701,17.5086266 C45.0499636,17.6416216 45.3876183,17.7598394 45.7546342,17.8632799 L45.7546342,12.6764749 C45.0499636,12.750361 44.4517275,13.0052681 43.9599261,13.4411961 M43.5635488,24.6238592 C44.1434341,25.2001708 44.8737959,25.5622128 45.7546342,25.709985 L45.7546342,19.8360391 C44.9765604,19.6439352 44.3049211,19.4333598 43.7397165,19.2043128 C43.1745119,18.9752659 42.7047314,18.7018873 42.3303751,18.384177 C41.9560188,18.0664667 41.6807569,17.6785646 41.5045892,17.2204707 C41.3284215,16.7623768 41.2403377,16.208231 41.2403377,15.5580332 C41.2403377,14.8930582 41.3577828,14.2834978 41.592673,13.729352 C41.8275632,13.1752061 42.1468672,12.6949464 42.5505847,12.2885728 C42.9543023,11.8821992 43.4314231,11.5607946 43.9819471,11.324359 C44.532471,11.0879235 45.1233668,10.9475398 45.7546342,10.9032082 L45.7546342,9.44026316 L46.965787,9.44026316 L46.965787,10.925374 C48.1549188,11.0731462 49.10182,11.5164629 49.8064907,12.255324 C50.5111614,12.9941851 51.0103031,14.0138135 51.3039159,15.3142091 L49.4321344,15.3142091 C49.1385216,13.851264 48.3164058,12.9941851 46.965787,12.7429724 L46.965787,18.1957674 L48.2870445,18.5504208 C48.5806573,18.6243069 48.9256523,18.7536076 49.3220296,18.9383228 C49.7184068,19.1230381 50.1001035,19.3779452 50.4671194,19.7030441 C50.8341354,20.028143 51.146099,20.4345166 51.4030102,20.922165 C51.6599214,21.4098133 51.788377,21.9935136 51.788377,22.6732658 C51.788377,23.3973497 51.6672617,24.0401589 51.4250311,24.6016933 C51.1828006,25.1632278 50.8488161,25.6471818 50.4230775,26.0535554 C49.997339,26.459929 49.4908569,26.7813336 48.9036314,27.0177692 C48.3164058,27.2542047 47.6704577,27.401977 46.965787,27.4610859 L46.965787,29.2786842 L45.7546342,29.2786842 L45.7546342,27.4610859 C44.2865703,27.3133136 43.1194595,26.7998052 42.2533018,25.9205604 C41.3871441,25.0413157 40.8953427,23.8258892 40.7778975,22.2742808 L42.649679,22.2742808 C42.6790403,23.2643547 42.9836636,24.0475475 43.5635488,24.6238592" id="Fill-5" fill="#4A90E2"></path>
                </g>
            </g>
        </g>
    </g>
</svg>