<?xml version="1.0" encoding="UTF-8" standalone="no"?>
<svg width="87px" height="89px" viewBox="0 0 87 89" version="1.1" xmlns="http://www.w3.org/2000/svg" xmlns:xlink="http://www.w3.org/1999/xlink">
    <!-- Generator: Sketch 39.1 (31720) - http://www.bohemiancoding.com/sketch -->
    <title>Group 40</title>
    <desc>Created with Sketch.</desc>
    <defs></defs>
    <g id="Page-1" stroke="none" stroke-width="1" fill="none" fill-rule="evenodd">
        <g id="Desktop-HD" transform="translate(-677.000000, -636.000000)" fill="#4ECDE8">
            <g id="Group-4" transform="translate(677.000000, 636.000000)">
                <g id="Group-40">
                    <path d="M77.2023438,78.4450812 C77.1023438,78.4450812 77.0023438,78.3450812 76.9023438,78.3450812 C76.4023438,78.2450812 75.8023438,78.4450812 75.5023438,78.7450812 C75.2023438,79.0450812 75.0023438,79.4450812 75.0023438,79.8450812 C75.0023438,80.2450812 75.2023438,80.6450812 75.5023438,80.9450812 C75.6023438,81.1450812 75.8023438,81.2450812 76.0023438,81.2450812 C76.2023438,81.3450812 76.4023438,81.3450812 76.6023438,81.3450812 C76.8023438,81.3450812 77.0023438,81.3450812 77.2023438,81.2450812 C77.4023438,81.1450812 77.6023438,81.0450812 77.7023438,80.9450812 C77.9023438,80.7450812 78.0023438,80.6450812 78.0023438,80.4450812 C78.1023438,80.2450812 78.1023438,80.0450812 78.1023438,79.8450812 C78.1023438,79.4450812 77.9023438,79.0450812 77.6023438,78.7450812 C77.5023438,78.6450812 77.4023438,78.6450812 77.4023438,78.5450812 C77.4023438,78.5450812 77.3023438,78.5450812 77.2023438,78.4450812 L77.2023438,78.4450812 Z" id="Shape"></path>
                    <path d="M71.2023438,58.1450812 L84.3023438,58.1450812 L84.3023438,54.9450812 L71.2023438,54.9450812 L71.2023438,51.2450812 L68.0023438,51.2450812 L68.0023438,54.9450812 L59.5023438,54.9450812 L59.5023438,59.8450812 L57.6023438,59.8450812 L49.8023438,52.9450812 L27.7023438,52.9450812 L27.5023438,54.3450812 C27.5023438,54.4450812 27.4023438,55.1450812 27.4023438,55.2450812 C27.4023438,56.8450812 27.9023438,58.4450812 28.8023438,59.8450812 L28.1023438,59.8450812 L23.1023438,52.1450812 C21.4023438,48.8450812 17.7023438,46.2450812 13.9023438,47.5450812 L12.1023438,48.1450812 C12.0023438,48.1450812 11.9023438,48.2450812 11.8023438,48.2450812 L10.2023438,48.9450812 L11.0023438,50.3450812 C8.20234375,49.2450812 4.90234375,49.2450812 2.70234375,51.5450812 L1.40234375,52.8450812 C1.30234375,52.9450812 1.20234375,53.0450812 1.20234375,53.1450812 L0.10234375,54.4450812 L19.7023438,67.9450812 L48.7023438,78.7450812 L59.6023438,78.7450812 L59.6023438,82.0450812 L68.1023438,82.0450812 L68.1023438,88.7450812 L86.9023438,88.7450812 L86.9023438,85.5450812 L71.2023438,85.5450812 L71.2023438,58.1450812 L71.2023438,58.1450812 Z M14.9023438,50.5450812 C17.0023438,49.8450812 19.3023438,51.6450812 20.3023438,53.7450812 L22.4023438,56.9450812 L16.0023438,53.2450812 L16.1023438,53.1450812 L14.7023438,50.6450812 L14.9023438,50.5450812 L14.9023438,50.5450812 Z M49.2023438,75.5450812 L21.2023438,65.2450812 L4.80234375,53.8450812 L4.90234375,53.7450812 C6.50234375,52.1450812 9.30234375,52.7450812 11.2023438,54.1450812 L22.1023438,60.4450812 L26.7023438,63.1450812 L33.6023438,63.1450812 L34.0023438,63.1450812 L45.3023438,63.1450812 L45.3023438,59.9450812 L33.8023438,59.9450812 C32.2023438,59.6450812 30.9023438,57.8450812 30.6023438,56.2450812 L48.6023438,56.2450812 L56.4023438,63.1450812 L59.5023438,63.1450812 L59.5023438,75.6450812 L49.2023438,75.6450812 L49.2023438,75.5450812 Z M62.7023438,78.8450812 L62.7023438,58.1450812 L68.0023438,58.1450812 L68.0023438,78.8450812 L62.7023438,78.8450812 L62.7023438,78.8450812 Z" id="Shape"></path>
                    <path d="M36.7023438,49.9450812 C45.3023438,49.9450812 52.3023438,42.9450812 52.3023438,34.3450812 C52.3023438,25.7450812 45.3023438,18.7450812 36.7023438,18.7450812 C28.1023438,18.7450812 21.1023438,25.7450812 21.1023438,34.3450812 C21.1023438,42.9450812 28.1023438,49.9450812 36.7023438,49.9450812 L36.7023438,49.9450812 Z M36.7023438,21.9450812 C43.5023438,21.9450812 49.1023438,27.5450812 49.1023438,34.3450812 C49.1023438,41.1450812 43.5023438,46.7450812 36.7023438,46.7450812 C29.9023438,46.7450812 24.3023438,41.1450812 24.3023438,34.3450812 C24.3023438,27.5450812 29.9023438,21.9450812 36.7023438,21.9450812 L36.7023438,21.9450812 Z" id="Shape"></path>
                    <path d="M35.3023438,43.8450812 L35.3023438,45.3450812 L38.5023438,45.3450812 L38.5023438,43.8450812 C40.7023438,43.5450812 42.3023438,41.7450812 42.3023438,39.4450812 L42.3023438,37.4450812 C42.3023438,36.4450812 41.9023438,35.0450812 39.9023438,33.8450812 L39.2023438,33.5450812 L39.2023438,33.5450812 L35.5023438,32.1450812 L35.4023438,32.1450812 L35.4023438,32.1450812 L35.0023438,31.9450812 C34.4023438,31.5450812 34.2023438,31.2450812 34.2023438,31.1450812 L34.2023438,29.2450812 C34.2023438,28.5450812 34.8023438,27.9450812 35.5023438,27.9450812 L37.9023438,27.9450812 C38.6023438,27.9450812 39.2023438,28.5450812 39.2023438,29.2450812 L39.2023438,30.1450812 L42.4023438,30.1450812 L42.4023438,29.2450812 C42.4023438,27.0450812 40.7023438,25.1450812 38.6023438,24.8450812 L38.6023438,23.0450812 L35.4023438,23.0450812 L35.4023438,24.7450812 C33.1023438,24.8450812 31.2023438,26.8450812 31.2023438,29.1450812 L31.2023438,31.0450812 C31.2023438,31.9450812 31.6023438,33.3450812 33.6023438,34.6450812 L34.5023438,34.9450812 L34.5023438,34.9450812 L38.5023438,36.4450812 C39.1023438,36.8450812 39.3023438,37.2450812 39.3023438,37.3450812 L39.3023438,39.3450812 C39.3023438,40.0450812 38.7023438,40.6450812 38.0023438,40.6450812 L35.7023438,40.6450812 C35.0023438,40.6450812 34.4023438,40.0450812 34.4023438,39.3450812 L34.4023438,38.4450812 L31.2023438,38.4450812 L31.2023438,39.3450812 C31.1023438,41.7450812 33.0023438,43.7450812 35.3023438,43.8450812 L35.3023438,43.8450812 Z" id="Shape"></path>
                    <rect id="Rectangle-path" x="22.4023438" y="10.8450812" width="3.2" height="9.5"></rect>
                    <rect id="Rectangle-path" x="29.3023437" y="1.94508122" width="3.2" height="13.7"></rect>
                    <rect id="Rectangle-path" x="36.4023438" y="9.54508122" width="3.2" height="6"></rect>
                    <rect id="Rectangle-path" x="46.0023438" y="0.44508122" width="3.2" height="17.4"></rect>
                </g>
            </g>
        </g>
    </g>
</svg>