<?xml version="1.0" encoding="UTF-8" standalone="no"?>
<svg width="109px" height="70px" viewBox="0 0 109 70" version="1.1" xmlns="http://www.w3.org/2000/svg" xmlns:xlink="http://www.w3.org/1999/xlink">
    <!-- Generator: Sketch 39.1 (31720) - http://www.bohemiancoding.com/sketch -->
    <title>Savings</title>
    <desc>Created with Sketch.</desc>
    <defs>
        <path d="M105.198784,22.5596435 L100.613563,22.5596435 C100.219439,22.5596435 99.8461367,22.6416966 99.4966306,22.7699978 C97.6420178,19.2088936 94.8682784,15.9894285 91.3866035,13.2682496 C93.8896616,8.6523901 95.6431407,5.59255565 96.647041,3.0981416 C97.7818202,0.275515181 96.0432136,-1.01793995 93.8331457,0.933431805 C92.2328542,2.34474501 86.4578248,6.34893598 83.3806845,8.45844642 C77.4524673,5.77456433 70.4846556,4.22599867 63.0290227,4.22599867 C47.1376527,4.22599867 33.469736,11.2586947 27.3630477,21.3482415 C26.7131152,20.4486412 25.8876861,19.6400453 24.8748622,18.9597505 C22.1219445,17.1038587 18.946645,16.9084232 16.1610076,18.4137245 C13.4988127,19.8548752 11.6977412,22.6685504 11.3467479,25.7895517 C14.7079549,28.2362257 16.455485,28.1288108 19.2069155,25.370335 C19.788434,24.7885039 20.7298694,24.7885039 21.3099007,25.370335 C21.8914192,25.9536579 21.8914192,26.8980144 21.3099007,27.4798454 C19.1578359,29.6400796 17.2392709,30.5531067 15.3459893,30.5531067 C12.4086514,30.5531067 9.52782932,28.3525919 5.92568631,25.2107044 C5.00507255,24.9764801 4.06809894,25.0122851 3.17128134,25.4061399 C1.49365239,26.1386503 0.262201355,27.9080134 0.0376251399,29.9101088 C-0.186951076,31.8898262 0.601296568,33.7039455 2.20158801,34.8884938 C6.96974262,38.4242362 13.6177935,39.5849145 19.2723549,38.0527595 C21.0927608,39.0717097 22.9934787,39.9086513 24.7038273,40.6590641 C24.9462507,40.7664791 25.1633906,40.8679265 25.3998649,40.9723577 C27.7928658,47.3232672 33.0205836,52.7969545 40.0270641,56.5833318 L40.0270641,65.8433963 C40.0270641,67.641105 41.4786296,69.0971745 43.2692902,69.0971745 L51.852266,69.0971745 C53.6429267,69.0971745 55.0944922,67.641105 55.0944922,65.8433963 L55.0944922,61.5378467 C57.6570406,61.9287178 60.3103119,62.1360884 63.0290227,62.1360884 C64.8613266,62.1360884 66.6609109,62.0346409 68.4248009,61.8541241 L68.4248009,65.8433963 C68.4248009,67.641105 69.8763664,69.0971745 71.6685143,69.0971745 L80.2500028,69.0971745 C82.0406635,69.0971745 83.4937162,67.641105 83.4937162,65.8433963 L83.4937162,57.8484413 C90.9448873,54.4469676 96.7258658,49.2403258 99.7569011,43.0565063 C100.032044,43.1325919 100.314623,43.1862994 100.613563,43.1862994 L105.198784,43.1862994 C106.989445,43.1862994 108.442498,41.7287381 108.442498,39.9325213 L108.442498,25.8134217 C108.442498,24.0172048 106.989445,22.5596435 105.198784,22.5596435 L105.198784,22.5596435 Z" id="path-1"></path>
        <mask id="mask-2" maskContentUnits="userSpaceOnUse" maskUnits="objectBoundingBox" x="0" y="0" width="108.442498" height="69.0971745" fill="white">
            <use xlink:href="#path-1"></use>
        </mask>
    </defs>
    <g id="Page-1" stroke="none" stroke-width="1" fill="none" fill-rule="evenodd">
        <g id="Desktop-HD" transform="translate(-354.000000, -1261.000000)" stroke="#4A90E2">
            <g id="Savings" transform="translate(354.000000, 1261.000000)">
                <g id="Page-1" stroke-width="6">
                    <use id="Fill-1" mask="url(#mask-2)" xlink:href="#path-1"></use>
                </g>
                <path d="M74.7441674,20.9510839 C70.7597986,19.83367 66.5657263,19.2354283 62.2660584,19.1727696 C57.9663906,19.2354283 53.7738055,19.83367 49.7894368,20.9510839 L48.5877309,16.6410587 C52.7252874,15.4788885 57.063624,14.831415 61.5045815,14.7105732 L61.5045815,14.6911788 L63.0290227,14.7105732 C67.4699802,14.831415 71.8083167,15.4788885 75.9473605,16.6410587 L74.7441674,20.9510839 Z" id="Path" stroke-width="3" stroke-linecap="round" stroke-linejoin="round"></path>
            </g>
        </g>
    </g>
</svg>