<?xml version="1.0" encoding="UTF-8" standalone="no"?>
<svg width="89px" height="85px" viewBox="0 0 89 85" version="1.1" xmlns="http://www.w3.org/2000/svg" xmlns:xlink="http://www.w3.org/1999/xlink">
    <!-- Generator: Sketch 39.1 (31720) - http://www.bohemiancoding.com/sketch -->
    <title>Group 6</title>
    <desc>Created with Sketch.</desc>
    <defs></defs>
    <g id="Page-1" stroke="none" stroke-width="1" fill="none" fill-rule="evenodd">
        <g id="Desktop-HD" transform="translate(-419.000000, -804.000000)" fill="#4ECDE8">
            <g id="Group-6" transform="translate(419.000000, 804.000000)">
                <g id="Group-41">
                    <path d="M0.7046875,82.1791719 C0.7046875,83.5791719 1.8046875,84.6791719 3.1046875,84.6791719 L25.1046875,84.6791719 C25.4046875,84.6791719 25.8046875,84.5791719 26.1046875,84.4791719 C26.4046875,84.5791719 26.7046875,84.6791719 27.1046875,84.6791719 L49.1046875,84.6791719 C49.4046875,84.6791719 49.8046875,84.5791719 50.1046875,84.4791719 C50.4046875,84.5791719 50.7046875,84.6791719 51.1046875,84.6791719 L73.1046875,84.6791719 C74.2046875,84.6791719 75.1046875,83.9791719 75.4046875,83.0791719 L84.2046875,74.6791719 C84.6046875,74.2791719 84.8046875,73.7791719 84.7046875,73.1791719 L81.3046875,57.4791719 C81.2046875,56.2791719 80.1046875,55.2791719 78.9046875,55.2791719 L72.7046875,55.2791719 L69.4046875,39.9791719 C69.1046875,38.6791719 68.0046875,37.6791719 66.7046875,37.6791719 L60.4046875,37.6791719 L57.1046875,22.3791719 C57.0046875,21.1791719 55.9046875,20.1791719 54.7046875,20.1791719 L39.5046875,20.1791719 C39.1046875,20.1791719 38.7046875,20.3791719 38.4046875,20.5791719 L28.7046875,29.5791719 L28.7046875,29.5791719 L28.7046875,29.5791719 L28.7046875,29.5791719 C28.3046875,29.9791719 28.0046875,30.4791719 27.9046875,31.1791719 L24.6046875,46.4791719 L18.5046875,46.4791719 C17.2046875,46.4791719 16.2046875,47.4791719 16.1046875,48.6791719 L12.8046875,63.9791719 L6.6046875,63.9791719 C5.3046875,63.9791719 4.3046875,64.9791719 4.2046875,66.1791719 L0.7046875,81.8791719 L0.7046875,82.1791719 L0.7046875,82.1791719 Z M26.1046875,75.1791719 L24.4046875,67.1791719 L27.8046875,67.1791719 L26.1046875,75.1791719 L26.1046875,75.1791719 Z M28.0046875,81.4791719 L31.1046875,67.1791719 L37.1046875,67.1791719 L37.4046875,67.1791719 L38.7046875,67.1791719 L39.0046875,67.1791719 L45.0046875,67.1791719 L48.1046875,81.4791719 L28.0046875,81.4791719 L28.0046875,81.4791719 Z M58.8046875,40.8791719 L63.4046875,40.8791719 L57.8046875,46.4791719 L57.6046875,46.4791719 L53.5046875,46.4791719 L58.8046875,40.8791719 L58.8046875,40.8791719 Z M49.0046875,49.6791719 L57.0046875,49.6791719 L60.1046875,63.9791719 L54.4046875,63.9791719 L54.1046875,63.9791719 L46.0046875,63.9791719 L45.7046875,63.9791719 L40.0046875,63.9791719 L43.1046875,49.6791719 L49.0046875,49.6791719 L49.0046875,49.6791719 Z M70.9046875,58.3791719 L75.3046875,58.3791719 L69.8046875,63.9791719 L69.6046875,63.9791719 L65.6046875,63.9791719 L70.9046875,58.3791719 L70.9046875,58.3791719 Z M50.0046875,75.1791719 L48.3046875,67.1791719 L51.8046875,67.1791719 L50.0046875,75.1791719 L50.0046875,75.1791719 Z M38.1046875,57.6791719 L36.4046875,49.6791719 L39.8046875,49.6791719 L38.1046875,57.6791719 L38.1046875,57.6791719 Z M51.9046875,81.4791719 L55.0046875,67.1791719 L61.0046875,67.1791719 L61.3046875,67.1791719 L68.9046875,67.1791719 L72.0046875,81.4791719 L51.9046875,81.4791719 L51.9046875,81.4791719 Z M81.2046875,72.9791719 L74.8046875,79.0791719 L72.0046875,66.1791719 L78.4046875,59.7791719 L81.2046875,72.9791719 L81.2046875,72.9791719 Z M69.3046875,55.4791719 L63.0046875,62.1791719 L60.1046875,48.7791719 L66.5046875,42.3791719 L69.3046875,55.4791719 L69.3046875,55.4791719 Z M57.2046875,37.9791719 L50.9046875,44.6791719 L48.0046875,31.1791719 L48.0046875,31.1791719 L54.4046875,24.7791719 L57.2046875,37.9791719 L57.2046875,37.9791719 Z M40.1046875,23.3791719 L51.3046875,23.3791719 L45.7046875,28.9791719 L45.5046875,28.9791719 L34.1046875,28.9791719 L40.1046875,23.3791719 L40.1046875,23.3791719 Z M31.0046875,32.0791719 L44.9046875,32.0791719 L48.0046875,46.4791719 L42.4046875,46.4791719 L33.6046875,46.4791719 L27.8046875,46.4791719 L31.0046875,32.0791719 L31.0046875,32.0791719 Z M19.1046875,49.6791719 L26.9046875,49.6791719 L33.0046875,49.6791719 L36.1046875,63.9791719 L30.4046875,63.9791719 L30.1046875,63.9791719 L22.0046875,63.9791719 L21.7046875,63.9791719 L16.0046875,63.9791719 L19.1046875,49.6791719 L19.1046875,49.6791719 Z M7.2046875,67.1791719 L14.8046875,67.1791719 L15.1046875,67.1791719 L21.1046875,67.1791719 L24.2046875,81.4791719 L4.1046875,81.4791719 L7.2046875,67.1791719 L7.2046875,67.1791719 Z" id="Shape"></path>
                    <rect id="Rectangle-path" transform="translate(59.715987, 9.825972) rotate(-68.283710) translate(-59.715987, -9.825972) " x="53.2161793" y="8.22601908" width="12.9996165" height="3.1999056"></rect>
                    <rect id="Rectangle-path" x="43.6046875" y="0.479171876" width="3.2" height="13"></rect>
                    <rect id="Rectangle-path" transform="translate(17.268717, 18.497502) rotate(-45.000000) translate(-17.268717, -18.497502) " x="15.6687328" y="11.9975642" width="3.19996931" height="12.9998753"></rect>
                    <rect id="Rectangle-path" transform="translate(8.541717, 31.777882) rotate(-68.291152) translate(-8.541717, -31.777882) " x="6.94167524" y="25.2777102" width="3.20008451" height="13.0003433"></rect>
                    <rect id="Rectangle-path" transform="translate(30.600158, 9.778562) rotate(-21.708848) translate(-30.600158, -9.778562) " x="29.0001152" y="3.27839021" width="3.20008451" height="13.0003433"></rect>
                    <rect id="Rectangle-path" transform="translate(73.046297, 18.587242) rotate(-45.000000) translate(-73.046297, -18.587242) " x="66.5463598" y="16.9872572" width="12.9998753" height="3.19996931"></rect>
                    <rect id="Rectangle-path" transform="translate(81.821347, 31.868292) rotate(-21.703524) translate(-81.821347, -31.868292) " x="75.3214162" y="30.2683088" width="12.9998625" height="3.19996616"></rect>
                </g>
            </g>
        </g>
    </g>
</svg>