<?xml version="1.0" encoding="UTF-8" standalone="no"?>
<svg width="90px" height="81px" viewBox="0 0 90 81" version="1.1" xmlns="http://www.w3.org/2000/svg" xmlns:xlink="http://www.w3.org/1999/xlink">
    <!-- Generator: Sketch 39.1 (31720) - http://www.bohemiancoding.com/sketch -->
    <title>Taxes</title>
    <desc>Created with Sketch.</desc>
    <defs></defs>
    <g id="Page-1" stroke="none" stroke-width="1" fill="none" fill-rule="evenodd">
        <g id="Desktop-HD" transform="translate(-995.000000, -1258.000000)" stroke="#4A90E2" stroke-width="2.5">
            <g id="Taxes" transform="translate(997.000000, 1259.000000)">
                <g id="Group-6" transform="translate(0.000000, 0.252871)">
                    <path d="M66.2006095,25.9831524 C66.237624,25.9089266 66.2531258,25.8843944 66.2626167,25.8576605 C66.6574385,24.7546524 66.9674749,23.6286847 67.1360967,22.4690637 C67.2373331,21.7717815 67.2952276,21.0697815 67.145904,20.369354 C66.9722204,19.5563298 66.5337404,18.9968056 65.5204276,19.1182089 C64.8256931,19.2015556 64.1312749,19.2905637 63.439704,19.3962411 C63.1331476,19.443104 62.8335513,19.5365153 62.4833367,19.6201766 C64.0673695,21.5720637 65.284104,23.6717734 66.2006095,25.9831524 L66.2006095,25.9831524 Z M42.6653695,27.7535637 C42.5131985,26.4215879 41.8744604,25.6299508 40.6374785,25.3044266 C40.1328785,25.1713863 39.6010713,25.0924427 39.079704,25.0823782 C38.258424,25.0669669 37.4327149,25.1025073 36.6136495,25.1713863 C36.0941804,25.215104 35.5740785,25.3264427 35.0713767,25.4676605 C34.6695949,25.5802573 34.3908785,25.8906847 34.3880313,26.3196847 C34.3855004,26.7216363 34.4775622,27.1242169 34.5253331,27.5267976 C34.5471622,27.7120476 34.6465004,27.7582815 34.8303076,27.7576524 C37.3659622,27.7513621 39.9016167,27.7535637 42.4375876,27.7535637 L42.6653695,27.7535637 Z M55.9153113,72.0471847 C54.1158349,66.8013702 52.3185731,61.5609024 50.501064,56.2609911 C48.820224,61.5659347 47.1586822,66.8095476 45.5012531,72.0402653 C48.973344,72.5346847 52.4305658,72.4695798 55.9153113,72.0471847 L55.9153113,72.0471847 Z M29.0032058,56.3408782 C28.9851731,56.3421363 28.9674567,56.3430798 28.949424,56.3440234 C27.1518458,61.5807169 25.3542676,66.817725 23.5383404,72.1088298 C25.3090276,72.2116766 27.0379549,72.3594992 28.7694131,72.3994427 C30.5062495,72.4390718 32.2361258,72.2456444 33.984984,72.062596 C32.3183804,66.8026282 30.6606349,61.5719105 29.0032058,56.3408782 L29.0032058,56.3408782 Z M42.0721876,59.7329347 C42.0259985,59.7263298 41.9978422,59.7247573 41.9706349,59.7178379 C41.0560276,59.4844669 40.1404713,59.2561282 39.2280785,59.0148944 C38.749104,58.8881444 38.2780385,58.7337169 37.8006458,58.6006766 C37.4497985,58.5028621 37.391904,58.2452734 37.3928531,57.934846 C37.3963331,56.6053863 37.3944349,55.2759266 37.3944349,53.9464669 L37.3944349,53.7011444 L32.7499004,53.7011444 C35.0710604,60.2487411 37.3846276,66.7746363 39.7197076,73.3621766 C42.0699731,66.7699185 44.3968276,60.2433944 46.7293767,53.7008298 L42.0721876,53.7008298 L42.0721876,59.7329347 Z M86.7050858,44.6918298 C86.6933804,44.7909024 86.6753476,44.889346 86.6709185,44.9887331 C86.5627222,47.4935395 86.470344,49.9992895 86.3441149,52.5034669 C86.2530022,54.3109911 86.1511331,56.1194589 85.9926349,57.9219508 C85.8360349,59.7011685 85.6152131,61.4750395 85.3940749,63.2479669 C85.3260567,63.7930234 85.1666095,64.3267573 85.0451258,64.8648944 C84.9372458,65.3432734 84.6139222,65.6876685 84.2890167,66.0245153 C82.9422567,67.4209669 81.4664204,68.6579589 79.7536276,69.5942734 C79.4777585,69.7452411 79.1810095,69.8584669 78.8380713,70.0147815 C78.8719222,69.8348782 78.8959658,69.7147331 78.9171622,69.5939589 C79.1731004,68.1396363 79.4492858,66.6881444 79.6777004,65.2294185 C79.889664,63.8760556 80.063664,62.5160879 80.2300713,61.1561202 C80.3695876,60.0163137 80.4806313,58.8730476 80.5923076,57.730096 C80.697024,56.658225 80.7947804,55.5854105 80.8792495,54.5119669 C80.9671985,53.3951202 81.0437585,52.2770153 81.1101949,51.158596 C81.1864385,49.8750556 81.2516095,48.5905718 81.3107695,47.3060879 C81.3541113,46.3659992 81.4006167,45.4252815 81.4097913,44.4842492 C81.4357331,41.8687331 81.473064,39.2525879 81.4480713,36.6370718 C81.4297222,34.7267008 81.3392422,32.8163298 81.2449658,30.907846 C81.1690385,29.3657734 81.0671695,27.8240153 80.9257549,26.286975 C80.7764313,24.6650153 80.5935731,23.0452573 80.3752822,21.4311605 C80.1965367,20.1105073 79.9769804,18.7929992 79.7153476,17.4861847 C79.4201804,16.011104 78.8877404,14.6074185 78.2211622,13.2581444 C78.1313149,13.076354 77.9500385,12.9209831 77.7782531,12.8002089 C76.9544422,12.2214992 76.0398349,11.8069669 75.1195331,11.4113056 C70.7575113,9.53584597 66.2657804,8.03560403 61.6630058,6.86560403 C60.6930349,6.61902339 59.7081949,6.42937016 58.7290495,6.21990242 C58.6667258,6.20637823 58.5645404,6.22493468 58.5281585,6.2683379 C57.7663549,7.17037016 57.0039185,8.07428952 56.4230749,9.10778952 C56.2550858,9.40689435 56.1348676,9.73241855 55.9830131,10.0409589 C55.8688058,10.2740153 55.9029731,10.4998379 55.9830131,10.7294347 C56.2357876,11.456596 56.6562349,12.0928621 57.085224,12.7225234 C58.4199622,14.6829024 59.9470495,16.4948298 61.456104,18.3209105 C61.5791695,18.4703056 61.7012858,18.6203298 61.8711731,18.8279105 C61.9300167,18.4957815 61.9958204,18.2205798 62.0252422,17.941604 C62.1220495,17.0260476 62.009424,16.1211847 61.8537731,15.2204105 C61.6519331,14.0519831 61.3605622,12.9065153 60.8999367,11.8104266 C60.7515622,11.4569105 60.5509876,11.125096 60.3557913,10.7476766 C60.6851258,10.6725073 61.0416676,10.5702895 61.4054858,10.5124185 C62.3485658,10.3623944 63.2948095,10.286596 64.2543404,10.3611363 C64.9977949,10.4190073 65.5315004,10.7398137 65.8851949,11.3908621 C66.3322167,12.2139508 66.5862567,13.1012008 66.790944,14.0044911 C67.1224931,15.4698218 67.3142095,16.956225 67.4483476,18.4508056 C67.4540422,18.5137089 67.4698604,18.5756685 67.4828313,18.6489508 C67.9213113,18.6489508 68.3490349,18.6225315 68.7723295,18.6555556 C69.3171076,18.6980153 69.8628349,18.7628056 70.3990713,18.8656524 C70.9429004,18.9697573 71.3753695,19.277354 71.7021731,19.7283702 C71.8227076,19.8947492 71.9628567,20.046975 72.0941476,20.2058056 L72.1514095,20.1881927 C72.2292349,19.7299427 72.3228785,19.2738944 72.3807731,18.8134427 C72.4753658,18.0567169 72.5199731,17.298104 72.4000713,16.5372895 C72.2912422,15.8488137 72.0625113,15.2182089 71.5667695,14.7055476 C71.5531658,14.6917089 71.5477876,14.6700073 71.5259585,14.6278621 C71.7686095,14.6093056 71.9963913,14.5828863 72.2244895,14.5759669 C73.1261258,14.5489185 74.029344,14.4869589 74.9293985,14.5149508 C76.1644822,14.5536363 76.7927804,15.0795073 77.1901331,16.3441766 C77.3698276,16.917225 77.4296204,17.541854 77.4527149,18.146354 C77.5185185,19.8739911 77.2312604,21.5642008 76.7902495,23.2295637 C76.6178313,23.8802976 76.4144095,24.5225395 76.2185804,25.1912008 C76.5475985,25.3751927 76.896864,25.5585556 77.2341076,25.7620476 C77.6782822,26.0297008 78.1199258,26.3027008 78.549864,26.5920556 C79.4774422,27.2163702 79.9260458,28.1114831 79.931424,29.2072573 C79.9412313,31.2619911 79.9304749,33.3170395 79.9073804,35.3720879 C79.8928276,36.6722976 79.8634058,37.9731363 79.7979185,39.2717734 C79.7292676,40.6342573 79.6198058,41.994854 79.5093949,43.3545073 C79.3195767,45.6879024 78.9105185,47.9926766 78.5561913,50.3040556 C78.2154676,52.5298863 77.8855004,54.7582331 77.5017513,56.9771444 C76.6472531,61.9222815 75.4656349,66.7865879 73.7357585,71.5084185 C73.6149076,71.838346 73.4674822,72.1585234 73.3497949,72.4893944 C73.2662749,72.7237089 73.1153695,72.8841121 72.8926495,72.9759508 C72.3273076,73.2090073 71.7663949,73.456846 71.189664,73.6587653 C70.1225695,74.0317815 69.0453513,74.3768056 67.9719295,74.7325234 C67.9121367,74.7523379 67.8491804,74.7624024 67.7292785,74.7907089 C67.8203913,74.2730153 67.8795513,73.7820556 67.995024,73.3049347 C68.6081367,70.776225 69.2649076,68.2578944 69.8479658,65.7225798 C70.3478204,63.5502169 70.7967404,61.3655879 71.2168713,59.1765556 C71.6667404,56.8315234 72.0720022,54.4779992 72.4687222,52.1232169 C72.8644931,49.775354 73.2631113,47.4268621 73.5886495,45.0689347 C73.8180131,43.4067169 73.9407622,41.7290879 74.0866058,40.0564911 C74.2159985,38.5682008 74.3330531,37.0786524 74.4172058,35.5875315 C74.5159113,33.8381927 74.6256895,32.0866524 74.6307513,30.3357411 C74.6342313,29.1550476 74.4475767,27.9746685 74.3776604,26.7924024 C74.3058458,25.5799427 73.5162022,25.0339427 72.487704,24.6860879 C72.379824,24.649604 72.2687804,24.6225556 72.1305295,24.5826121 C71.4949549,26.8034105 70.7423258,28.9669669 69.487944,30.9128782 C69.9106058,31.1877653 70.3130204,31.4255395 70.6888604,31.6994831 C71.3861258,32.2077411 71.9650713,32.819475 72.2836495,33.6406766 C72.4658749,34.1096202 72.4500567,34.5990073 72.445944,35.0861927 C72.4323404,36.7191605 72.2589731,38.3395476 72.0508058,39.9567895 C71.4740749,44.441475 70.6043913,48.8726927 69.6135404,53.2825234 C68.7726458,57.0236927 67.6808749,60.6878056 66.2312967,64.2427815 C66.063624,64.6541685 65.8567222,65.0495153 65.6776604,65.4564992 C65.5286531,65.7952331 65.2784095,66.018225 64.9278785,66.1207573 C63.9816349,66.3981605 63.0350749,66.6758782 62.0837695,66.935354 C61.6054276,67.0658782 61.1163295,67.1574024 60.5870531,67.276604 C60.6737367,66.9155395 60.7433367,66.5834105 60.8328676,66.2566282 C61.5086204,63.7886202 62.2362567,61.3335073 62.8537985,58.851346 C63.5697295,55.9719508 64.2302967,53.0774589 64.8396131,50.1741605 C65.4106495,47.4520234 65.8959513,44.7116444 66.3939076,41.9750395 C66.7121695,40.2253863 66.9915185,38.4684992 67.2752967,36.7128702 C67.4274676,35.7715234 67.5815367,34.828604 67.6808749,33.8809669 C67.772304,33.0081847 67.7776822,32.1291121 67.4502458,31.2871524 C67.1756422,30.5813782 66.669144,30.1149508 65.9266385,29.8432089 C65.9016458,30.0636847 65.8801331,30.2659185 65.8551404,30.4681524 C65.6102749,32.4562089 65.1923585,34.4124992 64.7640022,36.3669024 C63.9702458,39.9879266 63.0524749,43.5771847 61.9784204,47.1258702 C61.473504,48.7937492 60.9293585,50.4484185 60.2387367,52.0518218 C60.1612276,52.231725 60.0777076,52.2625476 59.8980131,52.2049911 C58.5310058,51.7678137 57.1937367,51.2554669 55.8865222,50.6638621 C55.6846822,50.5723379 55.5780676,50.4314347 55.5201731,50.222596 C54.6859222,47.2114185 53.8057985,44.2118782 53.0186858,41.1887492 C51.9699404,37.158854 50.9692822,33.1163782 49.9936167,29.0682411 C49.4459913,26.7971202 48.9904276,24.5039831 48.493104,22.220596 C48.4779185,22.152346 48.4589367,22.084725 48.4405876,22.0127008 C46.7733513,21.8683379 45.1200349,21.6874911 43.4550131,21.7554266 C42.6897295,21.7865637 41.922864,21.8570153 41.2170567,22.1869427 C40.9737731,22.3007976 40.7393476,22.4612008 40.5479476,22.6480234 C40.3926131,22.7999347 40.3078276,23.0229266 40.1594531,23.2673056 L44.3768967,23.2673056 C43.9150058,23.7400234 43.4664022,24.1992169 42.9823658,24.6948944 C44.1747404,24.9581444 44.7176204,25.8123702 45.1890022,26.7244669 C45.7622531,27.8340798 46.1131004,29.0245234 46.4123804,30.2306927 C46.419024,30.2577411 46.4193404,30.2863621 46.4247185,30.3319669 L41.0993695,30.3319669 C41.8213113,30.7254266 42.0630131,31.3626363 42.0645949,32.0750153 C42.0778822,37.5730718 42.0718713,43.0708137 42.0718713,48.5685556 L42.0718713,48.868604 L52.8127331,48.868604 C55.9295476,57.2469992 59.0397185,65.6074669 62.1593804,73.9934105 C61.6693331,74.2330718 61.1887767,74.4752492 60.7022095,74.704846 C58.6464785,75.6748137 56.5366495,76.5029347 54.3347585,77.0860476 C53.2733585,77.367225 52.199304,77.5785798 51.103104,77.6682169 C50.0673295,77.7528218 49.0809076,77.5159911 48.1055585,77.2131121 C46.0783004,76.5837653 44.1434204,75.7191605 42.1889258,74.9051927 C41.5046313,74.6202411 40.8108458,74.3569911 40.1218058,74.0830476 C39.8468858,73.973596 39.5725985,73.9751685 39.2992604,74.0858782 C38.1916713,74.5356363 37.0812349,74.9781605 35.9780749,75.4389266 C34.263384,76.1550798 32.551224,76.8724911 30.7606058,77.3914427 C29.5337476,77.7471605 28.3135331,77.7267169 27.0768676,77.4914589 C24.3963185,76.9813137 21.8688895,76.0185798 19.382904,74.9328702 C18.7625149,74.6617573 18.1503513,74.3720879 17.5347076,74.0902815 C17.4701695,74.0607169 17.4084785,74.0245476 17.3268567,73.9817734 C17.4081622,73.7612976 17.4866204,73.5474266 17.5660276,73.3338702 C20.5727476,65.2470315 23.5801004,57.1605073 26.5817585,49.072096 C26.6402858,48.9151524 26.7139985,48.8730073 26.8750276,48.8733218 C30.2873258,48.8780395 33.6993076,48.8767815 37.1112895,48.8767815 L37.3938022,48.8767815 C37.3938022,48.7833702 37.3941185,48.7069427 37.3938022,48.6305153 C37.3820967,42.8022169 37.3748204,36.9739185 37.3526749,31.1453056 C37.3504604,30.5049508 37.0581404,30.2829024 36.5174749,30.2866766 C35.6367185,30.2929669 34.7550131,30.2681202 33.8745731,30.294225 C33.2614604,30.3124669 32.6546749,30.4181444 32.0788931,30.6480556 C31.6948276,30.8015395 31.3613804,31.0182411 31.1405585,31.4371766 C31.0367913,31.1588298 30.9412495,30.9166524 30.8555149,30.6713298 C30.452784,29.5192573 30.0952931,28.354604 29.9108531,27.144975 C29.7877876,26.3382411 29.7378022,25.5318218 29.9500822,24.7291766 C30.0981404,24.1687089 30.4151367,23.7387653 30.9067658,23.4229911 C31.7157076,22.9040395 32.6157622,22.6351282 33.5452385,22.4442169 C34.5458967,22.2385234 35.561424,22.1734185 36.5807476,22.1501444 C36.6718604,22.1479427 36.7563295,22.1674427 36.7904967,22.0296847 C37.2549185,20.1617734 38.5422022,19.1279589 40.3271258,18.6074347 C41.3863113,18.2985798 42.4755513,18.1828379 43.5739658,18.1309427 C45.3968531,18.0447653 47.2143622,18.1488702 49.0302895,18.2985798 C50.3824276,18.4099185 51.7342495,18.5269185 53.0952458,18.642346 C53.0443113,18.8436363 52.9911622,19.0200798 52.9560458,19.1999831 C52.8636676,19.6742734 53.0104604,20.1271766 53.1044204,20.5813379 C54.5521004,27.5821524 56.3414531,34.5005637 58.2026204,41.4016766 C58.2212858,41.4699266 58.2427985,41.5375476 58.278864,41.6598944 C58.3914895,41.1777411 58.4943076,40.7481121 58.5917476,40.3175395 C59.0941331,38.094225 59.611704,35.8740556 60.0916276,33.6460234 C60.4532313,31.9687089 60.7072713,30.274096 60.8037622,28.5565234 C60.9059476,26.7357895 60.4234931,25.1201202 59.274144,23.683725 C57.7853367,21.8236766 56.3167767,19.9463298 54.868464,18.0548298 C53.7184822,16.5523863 52.606464,15.0210073 51.4900167,13.4934024 C51.2619185,13.1814024 51.0948785,12.8259992 50.8917731,12.4954427 C50.4748058,11.8182895 50.4447513,11.1021363 50.5959731,10.3388056 C50.8958858,8.82189435 51.6092858,7.49369274 52.4375258,6.21612823 C53.6596385,4.33154758 55.115544,2.63064435 56.6375695,0.983837903 C56.6853404,0.931942742 56.803344,0.903950806 56.8754749,0.920620161 C59.2668676,1.47951532 61.6661695,2.00916048 64.0449076,2.61806371 C67.4872604,3.49965242 70.8701367,4.57718468 74.1913222,5.83902339 C76.3346858,6.65299113 78.4505258,7.53080565 80.4581695,8.64356371 C80.930184,8.90524113 81.3787876,9.20906371 81.8390967,9.49149919 C82.4955513,9.89407984 82.8742385,10.5124185 83.1931331,11.1839105 C83.7581585,12.3727815 84.1226095,13.6267573 84.3491258,14.9131282 C84.688584,16.8407976 84.991344,18.7753863 85.2684785,20.7128056 C85.4861367,22.2325476 85.6585549,23.7595234 85.8202167,25.2861847 C85.9515076,26.5285234 86.049264,27.7746363 86.1410095,29.0204347 C86.2637585,30.6892573 86.3865076,32.3587089 86.4725585,34.0297331 C86.5592422,35.715854 86.6003695,37.4041766 86.6633258,39.0912411 C86.6702858,39.2768056 86.6908495,39.4617411 86.7050858,39.6466766 L86.7050858,44.6918298 Z" id="Fill-1"></path>
                    <path d="M47.1910145,0.0616137097 C47.0274545,0.489355645 46.8967964,0.932823387 46.6955891,1.34200887 C45.0976364,4.58750081 42.9220036,7.38197661 40.0908655,9.66190403 C38.7732109,10.7224524 37.2711164,11.4206782 35.6516509,11.8723234 C33.5354945,12.4626702 31.4098473,13.0184202 29.2917927,13.6018476 C25.7529491,14.5768476 22.2982582,15.7688637 19.0830545,17.5669524 C17.8346836,18.2651782 16.62744,19.0288234 15.5631927,19.9899847 C14.0158582,21.3870653 13.0936582,23.1263395 12.7462909,25.1719524 C12.5675455,26.2249524 12.5292655,27.2823556 12.6225927,28.3532831 C15.8868327,25.182646 19.6857273,22.8964282 24.00504,21.3147266 C23.9683418,21.469154 23.9503091,21.5628798 23.9237345,21.6540895 C23.5244836,23.0354444 23.2875273,24.4488798 23.0714509,25.8670331 C22.7924182,27.6962589 22.50516,29.522654 21.86832,31.2741944 C21.5820109,32.0614282 21.0938618,32.7215976 20.54592,33.3295573 C19.2143455,34.8055815 17.84196,36.2451218 16.5024764,37.7139121 C15.5805927,38.7244524 14.6621891,39.7403395 13.7858618,40.7895653 C12.8184218,41.9476137 12.32616,43.3330573 12.0126436,44.7861218 C11.7367745,46.0646298 11.6402836,47.3569766 11.7541745,48.661904 C11.7772691,48.9295573 11.8146,49.1962669 11.8519309,49.519904 C12.06168,49.2516218 12.2445382,49.0333476 12.4103127,48.8031218 C14.3837891,46.0636863 16.9188109,43.9064202 19.6221382,41.9237105 C20.3254145,41.407904 21.0347018,40.900275 21.7417745,40.3895008 C21.79872,40.3482992 21.8581964,40.3111863 21.9407673,40.2558315 C21.9455127,40.3407508 21.9550036,40.4014524 21.9508909,40.4612105 C21.8673709,41.6570008 21.8015673,42.8546782 21.6917891,44.0482669 C21.5823273,45.2343073 21.4453418,46.4184605 21.2903236,47.599154 C21.0305891,49.5755734 20.7585164,51.5516782 20.21184,53.4755734 C19.9653927,54.3417508 19.4873673,55.0987911 18.9906764,55.8397911 C17.7894436,57.6325331 16.3822582,59.2620411 14.9358436,60.859154 C14.3942291,61.4570492 13.8424909,62.0464524 13.2815782,62.6267347 C13.1430109,62.7698395 13.1344691,62.8821218 13.1990073,63.0595089 C14.0294618,65.3438395 14.8709891,67.625025 15.6666436,69.9213073 C16.0130618,70.9214685 16.2614073,71.9549685 16.55436,72.9733718 C16.5360109,72.9890976 16.5176618,73.0048234 16.4993127,73.0202347 C16.1975018,72.9035492 15.89316,72.792525 15.59388,72.6698637 C12.9512945,71.5863556 10.3517345,70.4116379 7.85594182,69.0211621 C6.75246545,68.4062831 5.66670545,67.7605815 4.70432727,66.9374927 C3.38319273,65.8074363 2.46953455,64.3955734 1.86433091,62.778646 C1.43439273,61.6303476 1.19458909,60.4364444 1.00287273,59.2318476 C0.857345455,58.3181782 0.714032727,57.4035653 0.595712727,56.4861218 C0.482138182,55.6035895 0.389127273,54.7179121 0.310036364,53.8319202 C0.202472727,52.6304685 0.0911127273,51.4280734 0.0303709091,50.2237911 C-0.0177163636,49.2717508 0.00759272727,48.3156218 0.000949090909,47.3613798 C0.000949090909,47.3412508 0.00980727273,47.3208073 0.0215127273,47.2701702 C0.20532,47.4032105 0.378687273,47.5268153 0.550156364,47.6532508 C2.19872727,48.8701137 3.81344727,50.1281782 5.28928364,51.5526218 C6.46014545,52.6829927 7.45669091,53.9611863 8.44279636,55.2466137 C9.07330909,56.0687589 9.66933818,56.9166944 10.2808691,57.7533073 C10.3134545,57.7982831 10.34604,57.8432589 10.4251309,57.8759685 C10.3700836,57.5432105 10.3118727,57.2110815 10.2606218,56.8780089 C10.1644473,56.2543234 10.0492909,55.6322105 9.98475273,55.0053798 C9.88889455,54.0766137 10.1173091,53.1962831 10.4684727,52.3423718 C10.5997636,52.0240815 10.7275745,51.7042185 10.8572836,51.3856137 C10.9366909,51.1906137 10.9205564,51.0075653 10.8525382,50.8034444 C10.3125055,49.1817992 9.35139273,47.8419605 8.11282909,46.6788798 C6.80434909,45.4500653 5.48922545,44.2278556 4.20985091,42.9704202 C3.46070182,42.2341379 2.73812727,41.4648315 2.06996727,40.6562105 C1.14713455,39.5387347 0.676069091,38.2111621 0.433418182,36.7942669 C0.0401781818,34.4960976 -0.0202472727,32.1787427 0.0341672727,29.8572992 C0.0708654545,28.2916379 0.155967273,26.7272347 0.225567273,25.1628315 C0.242967273,24.7684282 0.284094545,24.3752831 0.316047273,23.955404 C0.364134545,23.9900008 0.404945455,24.0107589 0.434367273,24.0422105 C2.77988727,26.5448153 5.11306909,29.0587427 7.22606182,31.7623234 C8.22134182,33.0357992 9.0132,34.4407427 9.80252727,35.8447427 C10.0059491,36.2064363 10.2014618,36.5722185 10.4140582,36.960646 C10.3985564,36.3960895 10.3656545,35.8639282 10.3726145,35.332396 C10.3934945,33.763275 10.70448,32.2548556 11.40048,30.838275 C11.5260764,30.5822589 11.5301891,30.3492024 11.4786218,30.0768315 C11.1040473,28.1010411 10.0597309,26.5042427 8.64811636,25.1203718 C7.62404727,24.1164363 6.56929091,23.1436379 5.54142545,22.1434766 C4.61890909,21.2458476 3.77263636,20.2815411 3.20001818,19.1178315 C2.43346909,17.5597185 2.16392727,15.9292669 2.60746909,14.2277347 C2.89915636,13.1083718 3.57427636,12.2173476 4.40726182,11.436404 C5.52181091,10.3915815 6.81542182,9.60592016 8.17958182,8.93820242 C9.20713091,8.43529113 10.2653673,7.99433952 11.3106327,7.52696855 C11.3688436,7.50117823 11.4321164,7.48639597 11.5282909,7.45525887 C11.6323745,7.87262177 11.7427855,8.27708952 11.8338982,8.68596048 C12.3312218,10.9146218 12.5023745,13.1728476 12.4036691,15.4490008 C12.3309055,17.1278879 12.2068909,18.8042589 12.1078691,20.4818879 C12.0730691,21.068775 12.0449127,21.6559766 12.0613636,22.2793476 C12.2888291,22.0377992 12.5292655,21.8069444 12.7412291,21.5528153 C13.5843382,20.542904 14.1104509,19.3659847 14.5286836,18.1362266 C15.0199964,16.6932266 15.3167455,15.2027347 15.6204545,13.7131863 C15.921,12.2387347 16.2057273,10.7592508 16.5723927,9.300525 C17.1162218,7.136025 18.4294473,5.54017016 20.44152,4.55919435 C22.4744727,3.56783952 24.5596255,2.68971048 26.7466473,2.0836379 C27.4103782,1.89964597 28.0972036,1.79931532 28.8238909,1.65054919 C28.7932036,1.79868629 28.7805491,1.88643629 28.7571382,1.97104113 C28.1038473,4.34972661 27.3866509,6.70796855 26.4650836,9.00047661 C25.7216291,10.8504605 24.6402982,12.4670734 23.1328255,13.7915008 C23.0258945,13.8855411 22.9256073,13.9871298 22.7943164,14.1116782 C22.8759382,14.1116782 22.9224436,14.1214282 22.9635709,14.1101056 C24.7535564,13.6248073 26.4056073,12.8693395 27.8197527,11.6515331 C28.7606182,10.8413395 29.5496291,9.89904919 30.23076,8.86712177 C31.2485018,7.32504919 32.2614982,5.77983145 33.2713309,4.2324121 C33.8135782,3.40083145 34.4092909,2.62114597 35.2609418,2.07262984 C35.8800655,1.67382339 36.5773309,1.45837984 37.2679527,1.23129919 C38.9048182,0.693162097 40.5888218,0.378016935 42.3009818,0.205976613 C42.7821709,0.157541129 43.2665236,0.138984677 43.7489782,0.104073387 C43.8559091,0.0962104839 43.9618909,0.0760814516 44.0681891,0.0616137097 L47.1910145,0.0616137097 Z" id="Fill-4"></path>
                </g>
            </g>
        </g>
    </g>
</svg>