<?xml version="1.0" encoding="UTF-8" standalone="no"?>
<svg width="72px" height="88px" viewBox="0 0 72 88" version="1.1" xmlns="http://www.w3.org/2000/svg" xmlns:xlink="http://www.w3.org/1999/xlink">
    <!-- Generator: Sketch 39.1 (31720) - http://www.bohemiancoding.com/sketch -->
    <title>Group 2</title>
    <desc>Created with Sketch.</desc>
    <defs></defs>
    <g id="Page-1" stroke="none" stroke-width="1" fill="none" fill-rule="evenodd">
        <g id="Desktop-HD" transform="translate(-952.000000, -801.000000)" fill="#4ECDE8">
            <g id="Group-2" transform="translate(952.000000, 801.000000)">
                <g id="Group-45">
                    <path d="M0.9046875,87.0164063 L71.7046875,87.0164063 L71.7046875,0.31640625 L0.9046875,0.31640625 L0.9046875,87.0164063 L0.9046875,87.0164063 Z M4.1046875,3.51640625 L68.6046875,3.51640625 L68.6046875,83.8164062 L4.1046875,83.8164062 L4.1046875,3.51640625 L4.1046875,3.51640625 Z" id="Shape"></path>
                    <path d="M9.0046875,33.0164063 L63.6046875,33.0164063 L63.6046875,10.1164063 L9.0046875,10.1164063 L9.0046875,33.0164063 L9.0046875,33.0164063 Z M12.2046875,13.3164063 L60.5046875,13.3164063 L60.5046875,29.8164063 L12.2046875,29.8164063 L12.2046875,13.3164063 L12.2046875,13.3164063 Z" id="Shape"></path>
                    <path d="M9.3046875,55.1164062 L25.5046875,55.1164062 L25.5046875,38.9164062 L9.3046875,38.9164062 L9.3046875,55.1164062 L9.3046875,55.1164062 Z M12.5046875,42.1164062 L22.3046875,42.1164062 L22.3046875,51.9164062 L12.5046875,51.9164062 L12.5046875,42.1164062 L12.5046875,42.1164062 Z" id="Shape"></path>
                    <path d="M9.3046875,76.6164062 L25.5046875,76.6164062 L25.5046875,60.5164062 L9.3046875,60.5164062 L9.3046875,76.6164062 L9.3046875,76.6164062 Z M12.5046875,63.6164062 L22.3046875,63.6164062 L22.3046875,73.4164062 L12.5046875,73.4164062 L12.5046875,63.6164062 L12.5046875,63.6164062 Z" id="Shape"></path>
                    <path d="M29.1046875,55.1164062 L45.3046875,55.1164062 L45.3046875,38.9164062 L29.1046875,38.9164062 L29.1046875,55.1164062 L29.1046875,55.1164062 Z M32.2046875,42.1164062 L42.0046875,42.1164062 L42.0046875,51.9164062 L32.2046875,51.9164062 L32.2046875,42.1164062 L32.2046875,42.1164062 Z" id="Shape"></path>
                    <path d="M29.1046875,76.6164062 L45.3046875,76.6164062 L45.3046875,60.5164062 L29.1046875,60.5164062 L29.1046875,76.6164062 L29.1046875,76.6164062 Z M32.2046875,63.6164062 L42.0046875,63.6164062 L42.0046875,73.4164062 L32.2046875,73.4164062 L32.2046875,63.6164062 L32.2046875,63.6164062 Z" id="Shape"></path>
                    <polygon id="Shape" points="57.2046875 39.7164063 54.1046875 39.7164063 54.1046875 45.5164063 48.4046875 45.5164063 48.4046875 48.6164063 54.1046875 48.6164063 54.1046875 54.3164063 57.2046875 54.3164063 57.2046875 48.6164063 63.0046875 48.6164063 63.0046875 45.5164063 57.2046875 45.5164063"></polygon>
                    <rect id="Rectangle-path" x="48.4046875" y="66.8164062" width="14.6" height="3.2"></rect>
                    <path d="M52.1046875,14.4164062 C49.2046875,14.4164062 46.8046875,16.8164062 46.8046875,19.7164062 L46.8046875,23.5164062 C46.8046875,26.4164062 49.2046875,28.8164062 52.1046875,28.8164062 C55.0046875,28.8164062 57.4046875,26.4164062 57.4046875,23.5164062 L57.4046875,19.7164062 C57.3046875,16.7164062 55.0046875,14.4164062 52.1046875,14.4164062 L52.1046875,14.4164062 Z M54.2046875,23.5164062 C54.2046875,24.7164062 53.2046875,25.6164062 52.1046875,25.6164062 C51.0046875,25.6164062 50.0046875,24.6164062 50.0046875,23.5164062 L50.0046875,19.7164062 C50.0046875,18.5164062 51.0046875,17.6164062 52.1046875,17.6164062 C53.2046875,17.6164062 54.2046875,18.5164062 54.2046875,19.7164062 L54.2046875,23.5164062 L54.2046875,23.5164062 Z" id="Shape"></path>
                    <path d="M39.9046875,14.4164062 C37.0046875,14.4164062 34.6046875,16.8164062 34.6046875,19.7164062 L34.6046875,23.5164062 C34.6046875,26.4164062 37.0046875,28.8164062 39.9046875,28.8164062 C42.8046875,28.8164062 45.2046875,26.4164062 45.2046875,23.5164062 L45.2046875,19.7164062 C45.2046875,16.7164062 42.8046875,14.4164062 39.9046875,14.4164062 L39.9046875,14.4164062 Z M42.0046875,23.5164062 C42.0046875,24.7164062 41.0046875,25.6164062 39.9046875,25.6164062 C38.8046875,25.6164062 37.8046875,24.6164062 37.8046875,23.5164062 L37.8046875,19.7164062 C37.8046875,18.5164062 38.8046875,17.6164062 39.9046875,17.6164062 C41.0046875,17.6164062 42.0046875,18.5164062 42.0046875,19.7164062 L42.0046875,23.5164062 L42.0046875,23.5164062 Z" id="Shape"></path>
                </g>
            </g>
        </g>
    </g>
</svg>